<svg width="16" height="16" viewBox="0 0 16 16" fill="none" xmlns="http://www.w3.org/2000/svg">
<mask id="mask0_3_6715" style="mask-type:alpha" maskUnits="userSpaceOnUse" x="0" y="0" width="16" height="16">
<rect width="16" height="16" fill="#D9D9D9"/>
</mask>
<g mask="url(#mask0_3_6715)">
<path d="M6.99959 12.8462C6.90501 12.8462 6.82589 12.8142 6.76222 12.7503C6.69855 12.6864 6.66671 12.6073 6.66671 12.5128V11.5898C6.66671 11.4701 6.62825 11.3718 6.55132 11.2949C6.4744 11.218 6.37611 11.1795 6.25646 11.1795H2.66671C2.57226 11.1795 2.4931 11.1475 2.42921 11.0835C2.36532 11.0196 2.33337 10.9403 2.33337 10.8457C2.33337 10.7511 2.36532 10.672 2.42921 10.6083C2.4931 10.5447 2.57226 10.5128 2.66671 10.5128H6.25646C6.5526 10.5128 6.80612 10.6183 7.01702 10.8292C7.22792 11.0401 7.33337 11.2936 7.33337 11.5898V12.5128C7.33337 12.6073 7.30138 12.6864 7.23741 12.7503C7.17343 12.8142 7.09416 12.8462 6.99959 12.8462ZM8.99959 12.8462C8.90502 12.8462 8.8259 12.8142 8.76222 12.7503C8.69855 12.6864 8.66671 12.6073 8.66671 12.5128V11.5898C8.66671 11.2936 8.77216 11.0401 8.98306 10.8292C9.19396 10.6183 9.44748 10.5128 9.74362 10.5128H13.3334C13.4278 10.5128 13.507 10.5448 13.5709 10.6088C13.6348 10.6728 13.6667 10.752 13.6667 10.8466C13.6667 10.9412 13.6348 11.0203 13.5709 11.084C13.507 11.1477 13.4278 11.1795 13.3334 11.1795H9.74362C9.62397 11.1795 9.52568 11.218 9.44876 11.2949C9.37183 11.3718 9.33337 11.4701 9.33337 11.5898V12.5128C9.33337 12.6073 9.30138 12.6864 9.23741 12.7503C9.17344 12.8142 9.09417 12.8462 8.99959 12.8462ZM4.33337 9.33333C3.87041 9.33333 3.47689 9.1713 3.15281 8.84723C2.82874 8.52316 2.66671 8.12963 2.66671 7.66667V6.33333C2.66671 6.18077 2.71831 6.05288 2.82151 5.94968C2.92472 5.84647 3.0526 5.79487 3.20516 5.79487H12.7949C12.9475 5.79487 13.0754 5.84647 13.1786 5.94968C13.2818 6.05288 13.3334 6.18077 13.3334 6.33333V7.66667C13.3334 8.12963 13.1713 8.52316 12.8473 8.84723C12.5232 9.1713 12.1297 9.33333 11.6667 9.33333H4.33337ZM4.33337 8.66667H11.6667C11.9411 8.66667 12.1763 8.56859 12.3725 8.37243C12.5686 8.17628 12.6667 7.94102 12.6667 7.66667V6.46153H3.33337V7.66667C3.33337 7.94102 3.43145 8.17628 3.62761 8.37243C3.82376 8.56859 4.05902 8.66667 4.33337 8.66667ZM3.00004 4.61538C2.9056 4.61538 2.82643 4.58339 2.76254 4.51942C2.69865 4.45545 2.66671 4.37618 2.66671 4.2816C2.66671 4.18702 2.69865 4.1079 2.76254 4.04423C2.82643 3.98056 2.9056 3.94872 3.00004 3.94872H6.33337V3.66667C6.33337 3.5141 6.38444 3.38621 6.48657 3.283C6.58872 3.1798 6.71925 3.1282 6.87817 3.1282H9.12191C9.28083 3.1282 9.41136 3.1798 9.51351 3.283C9.61564 3.38621 9.66671 3.5141 9.66671 3.66667V3.94872H13C13.0945 3.94872 13.1737 3.98071 13.2375 4.04468C13.3014 4.10865 13.3334 4.18792 13.3334 4.2825C13.3334 4.37707 13.3014 4.45619 13.2375 4.51987C13.1737 4.58355 13.0945 4.61538 13 4.61538H3.00004Z" fill="#1C1B1F"/>
</g>
</svg>
