<svg width="16" height="16" viewBox="0 0 16 16" fill="none" xmlns="http://www.w3.org/2000/svg">
<mask id="mask0_3_6685" style="mask-type:alpha" maskUnits="userSpaceOnUse" x="0" y="0" width="16" height="16">
<rect width="16" height="16" fill="#D9D9D9"/>
</mask>
<g mask="url(#mask0_3_6685)">
<path d="M2.46671 6.66667C2.46671 7.35384 2.58786 8.00897 2.83017 8.63205C3.07247 9.25513 3.41927 9.82094 3.87056 10.3295C3.93637 10.4004 3.97141 10.4773 3.97567 10.5602C3.97995 10.6432 3.9479 10.7188 3.87952 10.7872C3.81115 10.8556 3.73273 10.8848 3.64427 10.875C3.55581 10.8652 3.47867 10.8248 3.41286 10.7538C2.91286 10.188 2.52675 9.55406 2.25452 8.85192C1.9823 8.14978 1.84619 7.42137 1.84619 6.66667C1.84619 5.91197 1.9823 5.18355 2.25452 4.48142C2.52675 3.77927 2.91286 3.14529 3.41286 2.57948C3.47867 2.50855 3.55581 2.46817 3.64427 2.45833C3.73273 2.4485 3.81115 2.47777 3.87952 2.54615C3.9479 2.61453 3.97995 2.69017 3.97567 2.77308C3.97141 2.85598 3.93637 2.93291 3.87056 3.00385C3.41927 3.51239 3.07247 4.07821 2.83017 4.70128C2.58786 5.32436 2.46671 5.97949 2.46671 6.66667ZM4.66671 6.66667C4.66671 7.05641 4.72953 7.43162 4.85518 7.7923C4.98081 8.15299 5.16499 8.48205 5.40772 8.77948C5.47098 8.85043 5.50474 8.93013 5.50901 9.01858C5.51329 9.10705 5.48124 9.18547 5.41286 9.25385C5.34448 9.32223 5.26884 9.35214 5.18594 9.34358C5.10303 9.33504 5.02995 9.2953 4.96671 9.22437C4.66671 8.86967 4.43829 8.47329 4.28144 8.03525C4.12461 7.59722 4.04619 7.14102 4.04619 6.66667C4.04619 6.19231 4.12461 5.73612 4.28144 5.29808C4.43829 4.86004 4.66671 4.46367 4.96671 4.10897C5.02995 4.03803 5.10303 3.99829 5.18594 3.98975C5.26884 3.98119 5.34448 4.0111 5.41286 4.07948C5.48124 4.14786 5.51329 4.22628 5.50901 4.31475C5.50474 4.40321 5.47098 4.48291 5.40772 4.55385C5.16499 4.85128 4.98081 5.18034 4.85518 5.54103C4.72953 5.90171 4.66671 6.27692 4.66671 6.66667ZM7.66671 13.0769V7.89232C7.3838 7.82735 7.15495 7.68162 6.98018 7.45513C6.80539 7.22863 6.71799 6.96581 6.71799 6.66667C6.71799 6.31111 6.84277 6.00854 7.09234 5.75897C7.34192 5.5094 7.64449 5.38462 8.00004 5.38462C8.3556 5.38462 8.65816 5.5094 8.90774 5.75897C9.15731 6.00854 9.28209 6.31111 9.28209 6.66667C9.28209 6.96581 9.1947 7.22863 9.01991 7.45513C8.84513 7.68162 8.61629 7.82735 8.33338 7.89232V13.0769C8.33338 13.1718 8.30154 13.2511 8.23786 13.3147C8.17419 13.3784 8.09492 13.4103 8.00004 13.4103C7.90516 13.4103 7.82589 13.3784 7.76222 13.3147C7.69855 13.2511 7.66671 13.1718 7.66671 13.0769ZM11.3334 6.66667C11.3334 6.27692 11.2706 5.90171 11.1449 5.54103C11.0193 5.18034 10.8351 4.85128 10.5924 4.55385C10.5291 4.48291 10.4953 4.40321 10.4911 4.31475C10.4868 4.22628 10.5188 4.14786 10.5872 4.07948C10.6556 4.0111 10.7312 3.98119 10.8141 3.98975C10.8971 3.99829 10.9701 4.03803 11.0334 4.10897C11.3334 4.46367 11.5618 4.86004 11.7186 5.29808C11.8755 5.73612 11.9539 6.19231 11.9539 6.66667C11.9539 7.14102 11.8755 7.59722 11.7186 8.03525C11.5618 8.47329 11.3334 8.86967 11.0334 9.22437C10.9701 9.2953 10.8971 9.33504 10.8141 9.34358C10.7312 9.35214 10.6556 9.32223 10.5872 9.25385C10.5188 9.18547 10.4868 9.10705 10.4911 9.01858C10.4953 8.93013 10.5291 8.85043 10.5924 8.77948C10.8351 8.48205 11.0193 8.15299 11.1449 7.7923C11.2706 7.43162 11.3334 7.05641 11.3334 6.66667ZM13.5334 6.66667C13.5334 5.97949 13.4122 5.32436 13.1699 4.70128C12.9276 4.07821 12.5808 3.51239 12.1295 3.00385C12.0637 2.93291 12.0287 2.85598 12.0244 2.77308C12.0201 2.69017 12.0522 2.61453 12.1206 2.54615C12.1889 2.47777 12.2674 2.4485 12.3558 2.45833C12.4443 2.46817 12.5214 2.50855 12.5872 2.57948C13.0872 3.14529 13.4733 3.77927 13.7456 4.48142C14.0178 5.18355 14.1539 5.91197 14.1539 6.66667C14.1539 7.42137 14.0178 8.14978 13.7456 8.85192C13.4733 9.55406 13.0872 10.188 12.5872 10.7538C12.5214 10.8248 12.4443 10.8652 12.3558 10.875C12.2674 10.8848 12.1889 10.8556 12.1206 10.7872C12.0522 10.7188 12.0201 10.6432 12.0244 10.5602C12.0287 10.4773 12.0637 10.4004 12.1295 10.3295C12.5808 9.82094 12.9276 9.25513 13.1699 8.63205C13.4122 8.00897 13.5334 7.35384 13.5334 6.66667Z" fill="#1C1B1F"/>
</g>
</svg>
