<svg width="16" height="16" viewBox="0 0 16 16" fill="none" xmlns="http://www.w3.org/2000/svg">
<mask id="mask0_3_6733" style="mask-type:alpha" maskUnits="userSpaceOnUse" x="0" y="0" width="16" height="16">
<rect width="16" height="16" fill="#D9D9D9"/>
</mask>
<g mask="url(#mask0_3_6733)">
<path d="M7.33333 12.6667V11.3333H3.07692C2.77008 11.3333 2.51389 11.2306 2.30833 11.025C2.10278 10.8194 2 10.5633 2 10.2564V3.74358C2 3.43675 2.10278 3.18056 2.30833 2.975C2.51389 2.76945 2.77008 2.66667 3.07692 2.66667H12.9231C13.2299 2.66667 13.4861 2.76945 13.6917 2.975C13.8972 3.18056 14 3.43675 14 3.74358V10.2564C14 10.5633 13.8972 10.8194 13.6917 11.025C13.4861 11.2306 13.2299 11.3333 12.9231 11.3333H8.66667V12.6667H9.66667C9.76154 12.6667 9.84082 12.6985 9.90448 12.7622C9.96816 12.8259 10 12.9051 10 13C10 13.0949 9.96816 13.1742 9.90448 13.2378C9.84082 13.3015 9.76154 13.3333 9.66667 13.3333H6.33333C6.23846 13.3333 6.15918 13.3015 6.09552 13.2378C6.03184 13.1742 6 13.0949 6 13C6 12.9051 6.03184 12.8259 6.09552 12.7622C6.15918 12.6985 6.23846 12.6667 6.33333 12.6667H7.33333ZM3.07692 10.6667H12.9231C13.0256 10.6667 13.1197 10.6239 13.2051 10.5385C13.2906 10.453 13.3333 10.359 13.3333 10.2564V3.74358C13.3333 3.64103 13.2906 3.54701 13.2051 3.46153C13.1197 3.37607 13.0256 3.33333 12.9231 3.33333H3.07692C2.97436 3.33333 2.88034 3.37607 2.79487 3.46153C2.7094 3.54701 2.66667 3.64103 2.66667 3.74358V10.2564C2.66667 10.359 2.7094 10.453 2.79487 10.5385C2.88034 10.6239 2.97436 10.6667 3.07692 10.6667Z" fill="#1C1B1F"/>
</g>
</svg>
