<svg width="16" height="16" viewBox="0 0 16 16" fill="none" xmlns="http://www.w3.org/2000/svg">
<mask id="mask0_3_6727" style="mask-type:alpha" maskUnits="userSpaceOnUse" x="0" y="0" width="16" height="16">
<rect width="16" height="16" fill="#D9D9D9"/>
</mask>
<g mask="url(#mask0_3_6727)">
<path d="M5.33337 4.51282C5.47098 4.51282 5.59086 4.46175 5.69299 4.35962C5.79512 4.25748 5.84619 4.13761 5.84619 4C5.84619 3.86239 5.79512 3.74252 5.69299 3.64038C5.59086 3.53825 5.47098 3.48718 5.33337 3.48718C5.19576 3.48718 5.07589 3.53825 4.97376 3.64038C4.87162 3.74252 4.82056 3.86239 4.82056 4C4.82056 4.13761 4.87162 4.25748 4.97376 4.35962C5.07589 4.46175 5.19576 4.51282 5.33337 4.51282ZM7.33337 4.51282C7.47098 4.51282 7.59086 4.46175 7.69299 4.35962C7.79512 4.25748 7.84619 4.13761 7.84619 4C7.84619 3.86239 7.79512 3.74252 7.69299 3.64038C7.59086 3.53825 7.47098 3.48718 7.33337 3.48718C7.19576 3.48718 7.07589 3.53825 6.97376 3.64038C6.87162 3.74252 6.82056 3.86239 6.82056 4C6.82056 4.13761 6.87162 4.25748 6.97376 4.35962C7.07589 4.46175 7.19576 4.51282 7.33337 4.51282ZM8.00004 11.6667C8.60603 11.6667 9.12419 11.4598 9.55452 11.0462C9.98487 10.6325 10.2 10.1282 10.2 9.53333C10.2 9.25384 10.153 8.98269 10.059 8.71987C9.965 8.45704 9.8197 8.22734 9.62312 8.03077L8.37696 6.78462C8.26927 6.67692 8.14363 6.62307 8.00004 6.62307C7.85645 6.62307 7.73081 6.67692 7.62312 6.78462L6.43081 7.97692C6.22055 8.18717 6.06008 8.42649 5.94939 8.69487C5.83871 8.96324 5.78893 9.24273 5.80004 9.53333C5.82226 10.1282 6.04577 10.6325 6.47056 11.0462C6.89533 11.4598 7.40516 11.6667 8.00004 11.6667ZM8.00004 11.0539C7.5727 11.0539 7.2103 10.9073 6.91286 10.6141C6.61542 10.3209 6.46671 9.96068 6.46671 9.53333C6.46671 9.33248 6.4994 9.14209 6.56479 8.96218C6.63017 8.78227 6.73679 8.61838 6.88466 8.47052L8.00004 7.35513L9.16286 8.51795C9.29362 8.64872 9.38807 8.8047 9.44619 8.9859C9.50431 9.1671 9.53337 9.34958 9.53337 9.53333C9.53337 9.96068 9.38466 10.3209 9.08722 10.6141C8.78978 10.9073 8.42738 11.0539 8.00004 11.0539ZM4.41029 14C4.112 14 3.85794 13.8951 3.64811 13.6853C3.43829 13.4754 3.33337 13.2214 3.33337 12.9231V3.07692C3.33337 2.77863 3.43829 2.52457 3.64811 2.31473C3.85794 2.10491 4.112 2 4.41029 2H11.5898C11.8881 2 12.1421 2.10491 12.352 2.31473C12.5618 2.52457 12.6667 2.77863 12.6667 3.07692V12.9231C12.6667 13.2214 12.5618 13.4754 12.352 13.6853C12.1421 13.8951 11.8881 14 11.5898 14H4.41029ZM4.41029 13.3333H11.5898C11.7094 13.3333 11.8077 13.2949 11.8847 13.218C11.9616 13.141 12 13.0427 12 12.9231V3.07692C12 2.95726 11.9616 2.85897 11.8847 2.78205C11.8077 2.70513 11.7094 2.66667 11.5898 2.66667H4.41029C4.29063 2.66667 4.19235 2.70513 4.11542 2.78205C4.0385 2.85897 4.00004 2.95726 4.00004 3.07692V12.9231C4.00004 13.0427 4.0385 13.141 4.11542 13.218C4.19235 13.2949 4.29063 13.3333 4.41029 13.3333Z" fill="#1C1B1F"/>
</g>
</svg>
