<svg width="16" height="16" viewBox="0 0 16 16" fill="none" xmlns="http://www.w3.org/2000/svg">
<mask id="mask0_3_6709" style="mask-type:alpha" maskUnits="userSpaceOnUse" x="0" y="0" width="16" height="16">
<rect width="16" height="16" fill="#D9D9D9"/>
</mask>
<g mask="url(#mask0_3_6709)">
<path d="M3.07692 14C2.77008 14 2.51389 13.8972 2.30833 13.6917C2.10278 13.4861 2 13.2299 2 12.9231V3.07692C2 2.77008 2.10278 2.51389 2.30833 2.30833C2.51389 2.10278 2.77008 2 3.07692 2H12.9231C13.2299 2 13.4861 2.10278 13.6917 2.30833C13.8972 2.51389 14 2.77008 14 3.07692V12.9231C14 13.2299 13.8972 13.4861 13.6917 13.6917C13.4861 13.8972 13.2299 14 12.9231 14H3.07692ZM3.07692 13.3333H12.9231C13.0256 13.3333 13.1197 13.2906 13.2051 13.2051C13.2906 13.1197 13.3333 13.0256 13.3333 12.9231V3.07692C13.3333 2.97436 13.2906 2.88034 13.2051 2.79487C13.1197 2.7094 13.0256 2.66667 12.9231 2.66667H3.07692C2.97436 2.66667 2.88034 2.7094 2.79487 2.79487C2.7094 2.88034 2.66667 2.97436 2.66667 3.07692V12.9231C2.66667 13.0256 2.7094 13.1197 2.79487 13.2051C2.88034 13.2906 2.97436 13.3333 3.07692 13.3333ZM5.74358 9.17948C5.60598 9.17948 5.48612 9.12842 5.38398 9.02628C5.28184 8.92415 5.23077 8.80428 5.23077 8.66667C5.23077 8.52906 5.28184 8.40918 5.38398 8.30705C5.48612 8.20492 5.60598 8.15385 5.74358 8.15385C5.88119 8.15385 6.00107 8.20492 6.1032 8.30705C6.20534 8.40918 6.25642 8.52906 6.25642 8.66667C6.25642 8.80428 6.20534 8.92415 6.1032 9.02628C6.00107 9.12842 5.88119 9.17948 5.74358 9.17948ZM10.2564 9.17948C10.1188 9.17948 9.99893 9.12842 9.8968 9.02628C9.79466 8.92415 9.74358 8.80428 9.74358 8.66667C9.74358 8.52906 9.79466 8.40918 9.8968 8.30705C9.99893 8.20492 10.1188 8.15385 10.2564 8.15385C10.394 8.15385 10.5139 8.20492 10.616 8.30705C10.7182 8.40918 10.7692 8.52906 10.7692 8.66667C10.7692 8.80428 10.7182 8.92415 10.616 9.02628C10.5139 9.12842 10.394 9.17948 10.2564 9.17948ZM4.33333 11.6667C4.4282 11.6667 4.50747 11.6348 4.57115 11.5712C4.63483 11.5075 4.66667 11.4282 4.66667 11.3333V10.3333H11.3333V11.3333C11.3333 11.4282 11.3652 11.5075 11.4289 11.5712C11.4925 11.6348 11.5718 11.6667 11.6667 11.6667C11.7615 11.6667 11.8408 11.6348 11.9045 11.5712C11.9682 11.5075 12 11.4282 12 11.3333V7.68077C12 7.62009 11.9966 7.56004 11.9898 7.50063C11.9829 7.44123 11.9684 7.38247 11.9461 7.32435L11.1487 5.05385C11.0769 4.83846 10.95 4.66453 10.768 4.53205C10.5859 4.39957 10.3761 4.33333 10.1385 4.33333H5.86153C5.62393 4.33333 5.41411 4.39957 5.23205 4.53205C5.04999 4.66453 4.92307 4.83846 4.85128 5.05385L4.05385 7.32435C4.03163 7.38247 4.01709 7.44123 4.01025 7.50063C4.00342 7.56004 4 7.62009 4 7.68077V11.3333C4 11.4282 4.03184 11.5075 4.09552 11.5712C4.15918 11.6348 4.23846 11.6667 4.33333 11.6667ZM4.86923 7L5.47692 5.26923C5.50256 5.18376 5.54957 5.11752 5.61795 5.07052C5.68633 5.02351 5.76752 5 5.86153 5H10.1385C10.2325 5 10.3137 5.02351 10.382 5.07052C10.4504 5.11752 10.4974 5.18376 10.5231 5.26923L11.1308 7H4.86923ZM4.66667 9.66667V7.66667H11.3333V9.66667H4.66667Z" fill="#1C1B1F"/>
</g>
</svg>
