<svg width="16" height="16" viewBox="0 0 16 16" fill="none" xmlns="http://www.w3.org/2000/svg">
<mask id="mask0_3_6697" style="mask-type:alpha" maskUnits="userSpaceOnUse" x="0" y="0" width="16" height="16">
<rect width="16" height="16" fill="#D9D9D9"/>
</mask>
<g mask="url(#mask0_3_6697)">
<path d="M4.64512 5.58975C4.37828 5.58975 4.15277 5.49563 3.96858 5.30738C3.78439 5.11915 3.6923 4.89287 3.6923 4.62855C3.6923 4.36422 3.78439 4.13782 3.96858 3.94935C4.15277 3.7609 4.37828 3.66667 4.64512 3.66667C4.91194 3.66667 5.14036 3.76078 5.33037 3.94902C5.52038 4.13725 5.61538 4.36353 5.61538 4.62787C5.61538 4.89219 5.52038 5.11858 5.33037 5.30705C5.14036 5.49552 4.91194 5.58975 4.64512 5.58975ZM3.07692 14C2.78076 14 2.52724 13.8946 2.31635 13.6837C2.10545 13.4728 2 13.2192 2 12.9231V8.94872C2 8.79615 2.0516 8.66827 2.1548 8.56507C2.25801 8.46186 2.38589 8.41025 2.53845 8.41025H3.87178V7.34615C3.87178 7.07777 3.96314 6.8547 4.14587 6.67692C4.32859 6.49914 4.55347 6.41025 4.82052 6.41025C4.97436 6.41025 5.12009 6.43974 5.2577 6.49872C5.3953 6.5577 5.51624 6.6436 5.62052 6.75642L6.50257 7.73847C6.61453 7.87863 6.73821 8.00256 6.87358 8.11025C7.00897 8.21795 7.15282 8.31795 7.30513 8.41025H13.4616C13.6141 8.41025 13.742 8.46186 13.8452 8.56507C13.9484 8.66827 14 8.79615 14 8.94872V12.9231C14 13.2192 13.8946 13.4728 13.6837 13.6837C13.4728 13.8946 13.2192 14 12.9231 14H3.07692ZM12.7095 6.82052C12.6168 6.82052 12.54 6.78718 12.4789 6.72052C12.4177 6.65385 12.3885 6.57436 12.391 6.48205C12.4107 6.20342 12.3669 5.93226 12.2596 5.66858C12.1524 5.40492 11.9983 5.17266 11.7974 4.9718C11.5342 4.70855 11.3331 4.40641 11.1942 4.06538C11.0553 3.72436 10.9932 3.37222 11.0077 3.00897C11.0077 2.91535 11.0381 2.83489 11.0989 2.7676C11.1597 2.70031 11.2364 2.66667 11.329 2.66667C11.4216 2.66667 11.4991 2.70278 11.5615 2.775C11.6239 2.84722 11.6539 2.92949 11.6513 3.0218C11.6316 3.2953 11.6699 3.56175 11.766 3.82115C11.8622 4.08055 12.0137 4.30085 12.2205 4.48205C12.4838 4.7453 12.6883 5.04957 12.834 5.39487C12.9797 5.74017 13.0453 6.1 13.0308 6.47435C13.0308 6.57243 13.0004 6.65465 12.9396 6.721C12.8788 6.78735 12.8021 6.82052 12.7095 6.82052ZM10.03 6.82052C9.93733 6.82052 9.86046 6.78718 9.79935 6.72052C9.73824 6.65385 9.70897 6.57436 9.71153 6.48205C9.73119 6.19487 9.68739 5.92158 9.58013 5.66218C9.47287 5.40278 9.31453 5.17266 9.10513 4.9718C8.84188 4.70855 8.64294 4.40641 8.50833 4.06538C8.37372 3.72436 8.31368 3.37222 8.3282 3.00897C8.3282 2.91535 8.35859 2.83489 8.41938 2.7676C8.48017 2.70031 8.55688 2.66667 8.64952 2.66667C8.74215 2.66667 8.81902 2.7 8.88013 2.76667C8.94124 2.83333 8.97052 2.91282 8.96795 3.00513C8.9483 3.2812 8.98868 3.54829 9.0891 3.8064C9.18953 4.06452 9.3359 4.28974 9.5282 4.48205C9.8 4.7453 10.0088 5.04957 10.1545 5.39487C10.3002 5.74017 10.3658 6.1 10.3513 6.47435C10.3513 6.57243 10.3209 6.65465 10.2601 6.721C10.1993 6.78735 10.1226 6.82052 10.03 6.82052ZM10.9103 13.3333H12.8205V9.07692H10.9103V13.3333ZM8.33333 13.3333H10.2436V9.07692H8.33333V13.3333ZM5.75642 13.3333H7.66667V9.07692H5.75642V13.3333ZM3.17948 13.3333H5.08973V9.07692H3.17948V13.3333Z" fill="#1C1B1F"/>
</g>
</svg>
