<svg width="16" height="16" viewBox="0 0 16 16" fill="none" xmlns="http://www.w3.org/2000/svg">
<mask id="mask0_3_6703" style="mask-type:alpha" maskUnits="userSpaceOnUse" x="0" y="0" width="16" height="16">
<rect width="16" height="16" fill="#D9D9D9"/>
</mask>
<g mask="url(#mask0_3_6703)">
<path d="M7.14356 13.8718C6.71101 13.8718 6.38236 13.7437 6.15761 13.4876C5.93286 13.2315 5.82049 12.9396 5.82049 12.6121C5.82049 12.3938 5.86728 12.1784 5.96087 11.966C6.05446 11.7536 6.20467 11.5799 6.41151 11.4449C6.6645 11.2722 6.87454 11.0402 7.04164 10.7487C7.20873 10.4573 7.33287 10.1342 7.41407 9.77948C7.30467 9.73761 7.19741 9.68932 7.09227 9.63462C6.98715 9.57992 6.88545 9.50898 6.78716 9.4218L5.22817 9.98462C5.06493 10.0427 4.91029 10.0898 4.76426 10.1257C4.61822 10.1615 4.46763 10.1795 4.31247 10.1795C3.73747 10.1795 3.22967 9.92181 2.78907 9.40647C2.34847 8.89111 2.12817 8.13682 2.12817 7.14358C2.12817 6.71104 2.25549 6.38239 2.51012 6.15763C2.76475 5.93289 3.05068 5.82052 3.36792 5.82052C3.59698 5.82052 3.81835 5.86731 4.03202 5.9609C4.2457 6.05449 4.42006 6.2047 4.55511 6.41153C4.72775 6.66452 4.9598 6.87457 5.25126 7.04167C5.54271 7.20876 5.86579 7.3329 6.22049 7.4141C6.26237 7.3047 6.31066 7.19743 6.36536 7.0923C6.42006 6.98718 6.491 6.88547 6.57817 6.78718L6.01536 5.2282C5.95724 5.0735 5.91022 4.92008 5.87432 4.76795C5.83843 4.61582 5.82049 4.46795 5.82049 4.32435C5.82049 3.64743 6.11536 3.11217 6.70511 2.71858C7.29484 2.32499 8.01194 2.1282 8.85639 2.1282C9.28894 2.1282 9.61758 2.25489 9.84234 2.50828C10.0671 2.76166 10.1795 3.0462 10.1795 3.3619C10.1795 3.5779 10.1327 3.79487 10.0391 4.01282C9.94549 4.23077 9.79527 4.40727 9.58844 4.5423C9.33545 4.71496 9.12541 4.94914 8.95831 5.24487C8.79122 5.5406 8.66707 5.86582 8.58587 6.22052C8.70382 6.27094 8.81574 6.32436 8.92162 6.38077C9.0275 6.43718 9.12456 6.50299 9.21279 6.5782L10.7718 5.99872C10.935 5.94059 11.0873 5.89636 11.2288 5.86602C11.3702 5.83568 11.5184 5.82052 11.6735 5.82052C12.4125 5.82052 12.9637 6.13291 13.3269 6.75768C13.6902 7.38247 13.8718 8.08205 13.8718 8.85642C13.8718 9.28896 13.7367 9.61761 13.4666 9.84237C13.1966 10.0671 12.8969 10.1795 12.5678 10.1795C12.3568 10.1795 12.1506 10.1327 11.9493 10.0391C11.7481 9.94551 11.5799 9.7953 11.4448 9.58847C11.2722 9.33548 11.0401 9.12543 10.7487 8.95833C10.4572 8.79124 10.1342 8.6671 9.77946 8.5859C9.73758 8.6953 9.68929 8.80043 9.63459 8.90128C9.57989 9.00214 9.50895 9.10598 9.42177 9.21282L9.98459 10.7718C10.0403 10.9253 10.0867 11.0715 10.1238 11.2106C10.1609 11.3497 10.1795 11.4868 10.1795 11.6218C10.1735 12.1987 9.91476 12.7179 9.40329 13.1795C8.89183 13.641 8.13859 13.8718 7.14356 13.8718ZM8.00299 9.20513C8.33859 9.20513 8.62284 9.08767 8.85574 8.85275C9.08865 8.61784 9.20511 8.33258 9.20511 7.99698C9.20511 7.66138 9.08765 7.37713 8.85272 7.14423C8.61781 6.91132 8.33256 6.79487 7.99696 6.79487C7.66136 6.79487 7.37711 6.91233 7.14421 7.14725C6.9113 7.38216 6.79484 7.66742 6.79484 8.00302C6.79484 8.33862 6.9123 8.62287 7.14722 8.85577C7.38214 9.08868 7.66739 9.20513 8.00299 9.20513ZM7.13074 6.35128C7.25724 6.27777 7.38651 6.22414 7.51856 6.19038C7.65061 6.15662 7.78416 6.13846 7.91921 6.1359C8.0081 5.67778 8.16045 5.26154 8.37626 4.88718C8.59207 4.51282 8.87134 4.21367 9.21407 3.98973C9.31236 3.91966 9.38672 3.83419 9.43716 3.73333C9.48758 3.63248 9.51279 3.51068 9.51279 3.36795C9.51279 3.20708 9.46023 3.07136 9.35511 2.96077C9.24997 2.85017 9.08374 2.79487 8.85639 2.79487C8.41506 2.79487 7.91566 2.89907 7.35819 3.10748C6.80072 3.31588 6.51038 3.72322 6.48716 4.32948C6.48716 4.44316 6.50318 4.54872 6.53522 4.64615C6.56728 4.74358 6.59442 4.83119 6.61664 4.90897L7.13074 6.35128ZM4.30766 9.51282C4.45467 9.51282 4.6551 9.46966 4.90894 9.38333L6.36407 8.86923C6.29057 8.75983 6.23481 8.63911 6.19677 8.50705C6.15873 8.37501 6.13843 8.23291 6.13587 8.08077C5.67775 7.99188 5.26151 7.83953 4.88716 7.62372C4.51279 7.40791 4.21364 7.12863 3.98971 6.7859C3.91963 6.68761 3.82711 6.61325 3.71216 6.56282C3.59719 6.51239 3.48245 6.48718 3.36792 6.48718C3.18246 6.48718 3.04057 6.53974 2.94227 6.64487C2.84398 6.75 2.79484 6.91624 2.79484 7.14358C2.79484 7.77074 2.92406 8.3224 3.18251 8.79857C3.44094 9.27473 3.81599 9.51282 4.30766 9.51282ZM7.14356 13.2051C7.68325 13.2051 8.21432 13.0846 8.73679 12.8436C9.25926 12.6026 9.51792 12.1953 9.51279 11.6218C9.51279 11.5174 9.49677 11.4195 9.46472 11.3281C9.43267 11.2367 9.40553 11.1577 9.38331 11.091L8.86921 9.6359C8.74271 9.71796 8.60702 9.77586 8.46216 9.80962C8.31728 9.84338 8.19014 9.86154 8.08074 9.8641C7.99185 10.3222 7.8395 10.7385 7.62369 11.1128C7.40788 11.4872 7.12861 11.7863 6.78587 12.0103C6.69613 12.0718 6.62327 12.16 6.56729 12.275C6.5113 12.39 6.48459 12.5034 6.48716 12.6154C6.48972 12.7726 6.54228 12.9103 6.64484 13.0282C6.74741 13.1462 6.91365 13.2051 7.14356 13.2051ZM12.5825 9.51282C12.748 9.51282 12.8931 9.46581 13.0179 9.3718C13.1427 9.27778 13.2051 9.10598 13.2051 8.85642C13.2051 8.41508 13.1041 7.91278 12.902 7.34952C12.6999 6.78624 12.2894 6.4988 11.6705 6.48718C11.5568 6.48718 11.4534 6.4983 11.3602 6.52052C11.2671 6.54274 11.1773 6.56923 11.091 6.6L9.64869 7.13077C9.71365 7.24872 9.76515 7.37586 9.80319 7.51218C9.84122 7.64851 9.86152 7.78419 9.86407 7.91923C10.3222 8.00812 10.7384 8.16047 11.1128 8.37628C11.4872 8.59209 11.7863 8.87137 12.0102 9.2141C12.0607 9.2953 12.1411 9.36538 12.2514 9.42435C12.3618 9.48333 12.4721 9.51282 12.5825 9.51282Z" fill="#1C1B1F"/>
</g>
</svg>
