<svg width="16" height="16" viewBox="0 0 16 16" fill="none" xmlns="http://www.w3.org/2000/svg">
<mask id="mask0_3_6691" style="mask-type:alpha" maskUnits="userSpaceOnUse" x="0" y="0" width="16" height="16">
<rect width="16" height="16" fill="#D9D9D9"/>
</mask>
<g mask="url(#mask0_3_6691)">
<path d="M7.99996 13C7.58287 13 7.24911 13.1111 6.99868 13.3333C6.74825 13.5556 6.34612 13.6667 5.79226 13.6667C5.23841 13.6667 4.83628 13.5556 4.58586 13.3333C4.33543 13.1111 4.00166 13 3.58458 13C3.23671 13 2.95808 13.0707 2.74868 13.2122C2.53928 13.3536 2.29526 13.4688 2.01663 13.5577C1.93286 13.585 1.85359 13.5718 1.77881 13.5179C1.70402 13.4641 1.66663 13.3897 1.66663 13.2949C1.66663 13.1915 1.70124 13.1024 1.77048 13.0276C1.8397 12.9528 1.92346 12.8966 2.02176 12.859C2.23628 12.7675 2.44696 12.6571 2.65381 12.5276C2.86064 12.3981 3.1709 12.3333 3.58458 12.3333C4.10423 12.3333 4.48928 12.4444 4.73971 12.6667C4.99013 12.8889 5.34098 13 5.79226 13C6.24355 13 6.5944 12.8889 6.84483 12.6667C7.09526 12.4444 7.4803 12.3333 7.99996 12.3333C8.51962 12.3333 8.90893 12.4444 9.16791 12.6667C9.42689 12.8889 9.78202 13 10.2333 13C10.6846 13 11.0312 12.8889 11.273 12.6667C11.5149 12.4444 11.8957 12.3333 12.4153 12.3333C12.829 12.3333 13.1393 12.3981 13.3461 12.5276C13.553 12.6571 13.7636 12.7675 13.9782 12.859C14.0765 12.8966 14.1602 12.9528 14.2294 13.0276C14.2987 13.1024 14.3333 13.1915 14.3333 13.2949C14.3333 13.3897 14.2959 13.4641 14.2211 13.5179C14.1463 13.5718 14.0671 13.585 13.9833 13.5577C13.7047 13.4688 13.4606 13.3536 13.2512 13.2122C13.0418 13.0707 12.7632 13 12.4153 13C11.9983 13 11.6688 13.1111 11.4269 13.3333C11.185 13.5556 10.7871 13.6667 10.2333 13.6667C9.67945 13.6667 9.27304 13.5556 9.01406 13.3333C8.75508 13.1111 8.41705 13 7.99996 13ZM7.99996 10C7.57774 10 7.24462 10.1111 7.00059 10.3333C6.75658 10.5556 6.3538 10.6667 5.79226 10.6667C5.23073 10.6667 4.82667 10.5556 4.58009 10.3333C4.3335 10.1111 4.00166 10 3.58458 10C3.23671 10 2.95808 10.0707 2.74868 10.2122C2.53928 10.3536 2.29526 10.4688 2.01663 10.5577C1.93286 10.585 1.85359 10.5718 1.77881 10.5179C1.70402 10.4641 1.66663 10.3897 1.66663 10.2949C1.66663 10.1915 1.70124 10.1024 1.77048 10.0276C1.8397 9.95278 1.92346 9.89657 2.02176 9.85896C2.23628 9.76752 2.44696 9.65705 2.65381 9.52756C2.86064 9.39808 3.1709 9.33333 3.58458 9.33333C4.10423 9.33333 4.48992 9.44444 4.74163 9.66666C4.99334 9.88889 5.34355 10 5.79226 10C6.24355 10 6.5944 9.88889 6.84483 9.66666C7.09526 9.44444 7.4803 9.33333 7.99996 9.33333C8.51962 9.33333 8.90466 9.44444 9.15509 9.66666C9.40551 9.88889 9.75637 10 10.2077 10C10.6589 10 11.0098 9.88889 11.2602 9.66666C11.5106 9.44444 11.8957 9.33333 12.4153 9.33333C12.829 9.33333 13.1393 9.39808 13.3461 9.52756C13.553 9.65705 13.7636 9.76752 13.9782 9.85896C14.0765 9.89657 14.1602 9.95278 14.2294 10.0276C14.2987 10.1024 14.3333 10.1915 14.3333 10.2949C14.3333 10.3897 14.2959 10.4641 14.2211 10.5179C14.1463 10.5718 14.0671 10.585 13.9833 10.5577C13.7047 10.4688 13.4606 10.3536 13.2512 10.2122C13.0418 10.0707 12.7632 10 12.4153 10C11.9983 10 11.6707 10.1111 11.4327 10.3333C11.1946 10.5556 10.7948 10.6667 10.2333 10.6667C9.67688 10.6667 9.26983 10.5556 9.01214 10.3333C8.75444 10.1111 8.41705 10 7.99996 10ZM5.18969 7.44615L7.34226 5.29358L6.31663 4.26795C6.0132 3.96453 5.71 3.74081 5.40701 3.5968C5.10402 3.45277 4.73799 3.35299 4.30893 3.29743C4.18073 3.27863 4.06812 3.22222 3.97111 3.1282C3.8741 3.03419 3.82559 2.92308 3.82559 2.79486C3.82559 2.6641 3.8726 2.55662 3.96663 2.47243C4.06064 2.38824 4.17175 2.35299 4.29996 2.36666C4.85723 2.42222 5.33543 2.53654 5.73458 2.70961C6.13372 2.88269 6.53158 3.16752 6.92816 3.5641L10.8102 7.44615C10.7239 7.51709 10.6346 7.57158 10.5423 7.60961C10.45 7.64765 10.3427 7.66666 10.2205 7.66666C9.92303 7.66666 9.62987 7.55555 9.34099 7.33333C9.0521 7.11111 8.60509 7 7.99996 7C7.39483 7 6.94781 7.11111 6.65893 7.33333C6.37005 7.55555 6.07689 7.66666 5.77944 7.66666C5.65722 7.66666 5.54995 7.64765 5.45764 7.60961C5.36534 7.57158 5.27603 7.51709 5.18969 7.44615ZM10.9538 2.46153C11.3436 2.46153 11.676 2.59978 11.9512 2.87628C12.2265 3.15277 12.3641 3.48461 12.3641 3.8718C12.3641 4.26154 12.2265 4.59402 11.9512 4.86923C11.676 5.14444 11.3436 5.28205 10.9538 5.28205C10.5641 5.28205 10.2316 5.14444 9.95638 4.86923C9.68115 4.59402 9.54354 4.26154 9.54354 3.8718C9.54354 3.48461 9.68115 3.15277 9.95638 2.87628C10.2316 2.59978 10.5641 2.46153 10.9538 2.46153Z" fill="#1C1B1F"/>
</g>
</svg>
