<svg width="16" height="16" viewBox="0 0 16 16" fill="none" xmlns="http://www.w3.org/2000/svg">
<mask id="mask0_3_6721" style="mask-type:alpha" maskUnits="userSpaceOnUse" x="0" y="0" width="16" height="16">
<rect width="16" height="16" fill="#D9D9D9"/>
</mask>
<g mask="url(#mask0_3_6721)">
<path d="M3.90004 14V7.85257H4.56671V13.3333H9.56671V10.2577L11.2141 8.59743C11.562 8.24957 11.8312 7.85213 12.0218 7.40513C12.2124 6.95812 12.3077 6.48974 12.3077 6C12.3077 5.51282 12.2139 5.04787 12.0263 4.60513C11.8387 4.1624 11.5723 3.7671 11.227 3.41923L10.5667 2.74232L8.30902 5H5.97567L4.92569 6.05L4.45004 5.59102L5.70772 4.33333H8.04106L10.5667 1.80768L11.7026 2.93077C12.1129 3.34102 12.4253 3.80961 12.6398 4.33653C12.8543 4.86345 12.9659 5.41794 12.9744 6C12.9659 6.58205 12.8543 7.13654 12.6398 7.66347C12.4253 8.19039 12.1129 8.65898 11.7026 9.06923L10.2334 10.5256V14H3.90004ZM6.83722 11.0628L3.61414 7.85257C3.51756 7.75599 3.44662 7.64573 3.40132 7.5218C3.35602 7.39787 3.33337 7.26838 3.33337 7.13333C3.33337 6.99829 3.35602 6.87158 3.40132 6.7532C3.44662 6.63482 3.51756 6.52734 3.61414 6.43077L4.78337 5.25768L6.61927 7.0641C6.90474 7.34957 7.12076 7.67371 7.26734 8.03653C7.41393 8.39935 7.48722 8.78162 7.48722 9.18333C7.48722 9.52521 7.4338 9.85619 7.32696 10.1763C7.22012 10.4964 7.05688 10.7919 6.83722 11.0628Z" fill="#1C1B1F"/>
</g>
</svg>
